<svg width="87" height="83" viewBox="0 0 87 83" fill="none" xmlns="http://www.w3.org/2000/svg">
<g id="Group 17">
<path id="Vector" d="M27.7394 69.4807C26.8738 66.3244 24.9963 63.9359 22.7939 61.7712C20.7656 59.7778 18.7481 57.7877 17.4625 55.1925C16.1844 52.6126 15.5726 49.8406 15.3477 47.0153C14.715 39.07 16.3608 31.732 21.6018 25.49C27.1828 18.843 34.2687 15.4121 43.0263 15.1529C55.0409 14.7972 66.1084 22.5467 70.0347 33.6088C72.4686 40.4662 72.4909 47.3565 69.9646 54.2043C69.1034 56.5387 67.5246 58.4199 65.837 60.2065C64.4893 61.6332 62.9876 62.9085 61.7811 64.4755C59.6538 67.2384 58.7768 70.4351 58.46 73.8277C58.3223 75.3031 58.2959 76.7886 58.1769 78.2661C57.9977 80.4912 55.786 82.5537 53.3745 82.6979C52.1126 82.7733 50.8422 82.6964 49.5764 82.7223C48.8503 82.7372 48.5717 82.4252 48.5734 81.7071C48.587 76.1612 48.5889 70.6152 48.5714 65.0693C48.5693 64.425 48.9507 64.1667 49.4095 63.8766C52.3932 61.9893 54.2859 59.3582 54.4548 55.7727C54.5992 52.7048 53.4129 50.1345 50.8053 47.8855C50.8053 50.2415 50.7428 52.2794 50.8297 54.3109C50.8784 55.4483 50.4581 56.049 49.4373 56.4992C47.7618 57.2383 46.1281 58.0808 44.5173 58.9543C43.7367 59.3776 43.0912 59.3529 42.3188 58.9405C40.6636 58.0569 38.9831 57.2141 37.2729 56.4433C36.3557 56.0299 35.9569 55.4866 35.9943 54.4483C36.0689 52.3722 36.0164 50.2916 36.0164 47.9385C33.9521 49.6287 32.8563 51.5931 32.5546 53.8793C32.0223 57.912 33.5292 61.1573 36.8721 63.4804C37.6439 64.0167 37.9608 64.599 37.9559 65.5266C37.9283 70.7667 37.9205 76.0073 37.9722 81.2471C37.9836 82.3958 37.6142 82.8465 36.4654 82.7343C35.73 82.6625 34.9819 82.7257 34.2396 82.7186C30.985 82.6873 28.6935 80.475 28.6883 77.2065C28.6842 74.6191 28.429 72.08 27.7394 69.4807Z" fill="white"/>
<path id="Vector_2" d="M64.6197 6.21345C65.4973 5.89966 66.1855 6.03912 66.6742 6.73835C67.1569 7.42883 67.0308 8.12047 66.6199 8.81771C65.5807 10.5809 64.5856 12.3703 63.5326 14.1251C62.8127 15.3248 61.9445 15.6489 61.0826 15.1328C60.1423 14.5699 59.9771 13.6571 60.6648 12.4244C61.6407 10.675 62.6578 8.94864 63.6564 7.21194C63.876 6.83011 64.1222 6.47426 64.6197 6.21345Z" fill="white"/>
<path id="Vector_3" d="M9.86641 20.773C11.4227 21.6745 12.8941 22.5266 14.364 23.3812C15.313 23.933 15.7889 24.6925 15.2613 25.7709C14.7976 26.7188 13.7711 26.918 12.6651 26.2909C10.9208 25.3019 9.19327 24.2833 7.45914 23.2764C6.21294 22.5529 5.82521 21.6726 6.3438 20.7485C6.86024 19.8283 7.80509 19.6883 9.09353 20.3456C9.32647 20.4644 9.55194 20.5979 9.86641 20.773Z" fill="white"/>
<path id="Vector_4" d="M28.5659 12.4547C28.6143 13.4961 28.1076 14.062 27.2648 14.2589C26.4403 14.4516 25.8433 13.9924 25.4402 13.3019C24.3226 11.3872 23.2023 9.47355 22.1181 7.53982C21.6281 6.66596 21.7396 5.81371 22.6191 5.25889C23.4838 4.71339 24.3848 4.88393 24.8922 5.75397C26.1589 7.92578 27.6206 9.99308 28.5659 12.4547Z" fill="white"/>
<path id="Vector_5" d="M79.9267 21.7784C80.9987 21.6949 81.6513 22.1146 81.8693 23.0577C82.0802 23.9703 81.5287 24.5563 80.8211 24.973C79.0199 26.0336 77.1991 27.0613 75.3826 28.0959C74.4342 28.636 73.5431 28.6867 72.8818 27.6606C72.3219 26.7918 72.6429 25.8638 73.795 25.1912C75.7864 24.0286 77.81 22.9209 79.9267 21.7784Z" fill="white"/>
<path id="Vector_6" d="M44.1026 0C45.746 0.0179243 46.1119 0.326125 46.1319 1.75266C46.1624 3.92349 46.1448 6.09496 46.1549 8.26613C46.1599 9.32944 45.7218 10.0685 44.6018 10.1158C43.4716 10.1635 42.9103 9.3938 42.8786 8.3896C42.8073 6.13325 42.8387 3.87289 42.8655 1.61461C42.8745 0.856906 43.2836 0.308197 44.1026 0Z" fill="white"/>
<path id="Vector_7" d="M84.7611 46.0445C82.6367 46.043 80.6359 46.0224 78.6356 46.0458C77.5381 46.0585 76.8833 45.5363 76.7284 44.4925C76.5976 43.6118 77.5086 42.7562 78.6003 42.7358C80.6872 42.6968 82.7753 42.7098 84.8628 42.7241C86.1917 42.7333 86.9441 43.3182 86.9971 44.3263C87.052 45.3706 86.3203 45.9656 84.7611 46.0445Z" fill="white"/>
<path id="Vector_8" d="M0.764886 43.6861C0.0473517 43.0828 -0.199091 42.4131 0.170311 41.6462C0.523053 40.9139 1.1614 40.6074 1.98345 40.6144C4.07155 40.6322 6.16011 40.6039 8.24807 40.6288C9.55168 40.6443 10.2831 41.2904 10.2192 42.3608C10.1469 43.5718 9.3567 43.9884 8.25943 43.9458C5.79251 43.8499 3.31365 44.1936 0.764886 43.6861Z" fill="white"/>
</g>
</svg>
